<svg width="23" height="23" viewBox="0 0 23 23" fill="none" xmlns="http://www.w3.org/2000/svg">
<rect x="4.13449" y="4.20541" width="14.7321" height="14.7321" rx="4.6875" stroke="black" stroke-width="1.33929"/>
<path d="M9.03644 8.65589C8.88905 8.80327 8.7122 8.87696 8.50586 8.87696C8.29953 8.87696 8.11899 8.80327 7.96424 8.65589C7.81685 8.50114 7.74316 8.3206 7.74316 8.11426C7.74316 7.90793 7.81685 7.73107 7.96424 7.58369C8.11162 7.42894 8.29216 7.35156 8.50586 7.35156C8.71957 7.35156 8.90011 7.42894 9.04749 7.58369C9.19487 7.73107 9.26856 7.90793 9.26856 8.11426C9.26856 8.3206 9.19119 8.50114 9.03644 8.65589ZM7.90897 15.2328V9.70598H9.10276V15.2328H7.90897Z" fill="black"/>
<path d="M13.396 9.56228C14.0297 9.56228 14.5419 9.76493 14.9324 10.1702C15.323 10.5755 15.5183 11.1319 15.5183 11.8393V15.2328H14.3245V11.9609C14.3245 11.5482 14.2139 11.2314 13.9929 11.0103C13.7718 10.7892 13.4697 10.6787 13.0865 10.6787C12.6664 10.6787 12.3274 10.8113 12.0695 11.0766C11.8116 11.3345 11.6827 11.7325 11.6827 12.2704V15.2328H10.4889V9.70598H11.6827V10.4134C12.0437 9.84599 12.6148 9.56228 13.396 9.56228Z" fill="black"/>
</svg>
