<svg width="22" height="23" viewBox="0 0 22 23" fill="none" xmlns="http://www.w3.org/2000/svg">
<path d="M13.935 10.0669C15.1608 10.9497 16.6336 11.4236 18.1442 11.4212V8.41463C17.0279 8.41463 15.9572 7.97116 15.1679 7.18179C14.3785 6.39241 13.935 5.32179 13.935 4.20544H10.9285V13.8264C10.9284 14.203 10.8272 14.5727 10.6356 14.8969C10.4439 15.2211 10.1688 15.4879 9.83884 15.6696C9.50892 15.8512 9.13631 15.941 8.75988 15.9295C8.38344 15.9181 8.01698 15.8058 7.69871 15.6045C7.38044 15.4031 7.12203 15.1201 6.95043 14.7848C6.77884 14.4496 6.70034 14.0744 6.72313 13.6985C6.74593 13.3226 6.86918 12.9597 7.08002 12.6476C7.29087 12.3356 7.58159 12.0858 7.92185 11.9244L7.9219 8.79462C6.96475 8.96612 6.07639 9.40709 5.36106 10.0658C4.64572 10.7244 4.13311 11.5735 3.88337 12.5132C3.63363 13.453 3.65714 14.4445 3.95112 15.3714C4.2451 16.2983 4.79737 17.1221 5.5431 17.7461C6.28884 18.3702 7.1971 18.7685 8.1613 18.8945C9.12549 19.0205 10.1056 18.8688 10.9866 18.4573C11.8677 18.0458 12.613 17.3915 13.1353 16.5713C13.6575 15.751 13.9349 14.7988 13.935 13.8264L13.935 10.0669Z" stroke="black" stroke-width="1.33929" stroke-linecap="round" stroke-linejoin="round"/>
</svg>
