<svg width="24" height="23" viewBox="0 0 24 23" fill="none" xmlns="http://www.w3.org/2000/svg">
<path d="M6.29534 12.3602C5.72223 12.4318 4.71893 12.6466 4.1457 13.1482C2.42601 14.6525 3.42919 17.303 6.94033 17.303C8.94657 17.303 10.9529 16.0135 12.5293 14.0076C10.2364 12.9332 8.37334 12.145 6.29534 12.3599V12.3602Z" fill="black"/>
<path d="M19.1394 14.205C22.3638 15.2795 23.0803 15.3512 23.0803 15.3512V3.88921C23.0803 1.95496 21.5039 0.379028 19.4977 0.379028H4.44996C2.51524 0.379028 0.867188 1.95508 0.867188 3.88933V18.9335C0.867188 20.8676 2.4436 22.4435 4.44996 22.4435H19.4977C21.4323 22.4435 23.0803 20.8675 23.0803 18.9332V18.7901C23.0803 18.7901 17.348 16.4261 14.4101 14.9933C12.4755 17.3573 9.96758 18.8617 7.31635 18.8617C2.87379 18.8617 1.36902 14.9933 3.51866 12.4861C3.94849 11.9129 4.73676 11.4115 5.95485 11.125C7.81794 10.6951 10.8275 11.4115 13.622 12.3427C14.1235 11.4115 14.5534 10.4086 14.8401 9.33399H6.16989V8.47433H10.6124V6.755H5.16671V5.89533H10.6124V3.67477C10.6124 3.67477 10.6124 3.31658 10.9706 3.31658H13.1204V5.96721H18.4945V6.75524H13.1204V8.33129H17.4913C17.0615 10.0505 16.4165 11.6264 15.6282 12.9877C17.0614 13.489 18.2795 13.919 19.1394 14.2053V14.205Z" fill="black"/>
</svg>
