<svg width="38" height="58" viewBox="0 0 38 58" fill="none" xmlns="http://www.w3.org/2000/svg">
<g clip-path="url(#clip0_2_2929)">
<path fill-rule="evenodd" clip-rule="evenodd" d="M2.44693 27.5416C2.40772 36.2843 9.49933 43.0548 17.705 43.2934C26.745 43.5567 34.3951 36.1019 33.9204 26.7812C33.7078 22.5997 32.0757 19.0362 29.0454 16.1686C25.7828 13.081 21.8655 11.6602 17.3637 11.848C9.54184 12.1741 2.42299 18.7675 2.44693 27.542M36.3467 27.5709C36.2972 38.2818 27.4987 45.8382 18.0051 45.6954C7.51219 45.5377 -0.382282 36.8783 0.039582 26.8023C0.458557 16.801 8.76045 9.15045 18.6111 9.4105C29.1238 9.68872 36.4392 18.3142 36.3467 27.5713M18.1938 55.4606L35.9492 55.461C36.3038 55.461 36.3034 55.461 36.3034 55.816V57.4679C36.3034 57.787 36.3034 57.7878 35.976 57.7878H0.44122C0.0924182 57.7878 0.092831 57.7878 0.092831 57.4473C0.092831 56.8562 0.0973716 56.2651 0.0895287 55.674C0.0874648 55.5183 0.130807 55.4453 0.293443 55.4601C0.373523 55.4672 0.455254 55.461 0.53616 55.461H18.1938V55.4606ZM6.33163 2.37875C5.89037 2.37875 5.47222 2.38577 5.05448 2.37049C4.99669 2.36884 4.9162 2.26771 4.89061 2.19671C4.68421 1.62583 4.26152 1.32037 3.68239 1.24979C3.01079 1.16764 2.44404 1.41531 2.12455 2.01096C1.63746 2.91949 1.60485 3.87261 2.09813 4.79807C2.39079 5.34748 2.87912 5.61662 3.50943 5.61662C4.09848 5.61662 4.53644 5.3673 4.79567 4.83316C4.86584 4.68951 4.92363 4.5343 4.95252 4.37827C4.98018 4.23214 5.03136 4.16775 5.18698 4.17188C5.50235 4.18096 5.81813 4.17972 6.13349 4.1727C6.31925 4.16857 6.36672 4.24246 6.34773 4.4245C6.22266 5.61744 5.34425 6.55776 4.15709 6.75672C3.05579 6.94165 2.06139 6.72576 1.25234 5.92455C0.711593 5.38876 0.440807 4.71138 0.36568 3.95475C0.274455 3.03755 0.387558 2.15791 0.903124 1.37445C1.56523 0.368496 2.54228 -0.0158049 3.71335 0.035793C4.48608 0.0696412 5.16511 0.33052 5.69636 0.912131C6.06621 1.31666 6.26352 1.7992 6.33204 2.37875M35.0857 4.36093C35.0291 4.06909 34.999 3.80367 34.9247 3.55105C34.8145 3.17542 34.5602 2.90917 34.1685 2.84932C33.7214 2.78121 33.3 2.86872 33.0639 3.31122C32.7262 3.94402 32.7303 4.60323 33.0341 5.2414C33.2166 5.62405 33.5501 5.8358 33.993 5.81929C34.4141 5.80402 34.722 5.58979 34.8735 5.20755C34.9812 4.93511 35.0196 4.63543 35.0857 4.36134M35.0299 6.16438C34.3282 7.04485 32.8587 6.88675 32.2573 6.28409C31.8511 5.87708 31.6435 5.38216 31.5568 4.82779C31.4305 4.02286 31.544 3.26623 32.0344 2.59216C32.68 1.70509 34.0661 1.58992 34.8042 2.30321C34.8368 2.33458 34.8838 2.35027 34.9631 2.39567C34.9746 2.28422 34.9903 2.20249 34.9907 2.12035C34.9924 1.56144 34.9969 1.00253 34.9878 0.443622C34.985 0.261998 35.0522 0.197604 35.2285 0.201732C35.5117 0.207511 35.7952 0.204208 36.0784 0.195127C36.2365 0.190174 36.3145 0.233103 36.3137 0.412251C36.3096 2.42126 36.3104 4.42987 36.3133 6.43888C36.3133 6.60812 36.2456 6.67004 36.0805 6.66426C35.8376 6.65541 35.5944 6.65541 35.3515 6.66426C35.1525 6.67252 35.0378 6.6172 35.0663 6.39058C35.0737 6.3328 35.0481 6.27088 35.0299 6.16438ZM9.11998 3.83174C9.38622 3.83174 9.65288 3.82555 9.91913 3.83381C10.1288 3.84041 10.1804 3.7463 10.1164 3.56426C9.96784 3.14198 9.78043 2.78864 9.02587 2.83818C8.61226 2.86542 8.21392 3.19936 8.14003 3.601C8.11114 3.75992 8.1582 3.83257 8.32042 3.83216C8.58708 3.83051 8.85332 3.83133 9.11998 3.83216M9.81552 4.64699C9.33009 4.64699 8.84465 4.64947 8.35881 4.64575C8.18214 4.6441 8.09669 4.67588 8.13095 4.8959C8.2036 5.36317 8.44054 5.67606 8.89997 5.78379C9.38292 5.8969 9.82584 5.79618 10.1441 5.3933C10.2671 5.23727 10.3905 5.18897 10.5734 5.20012C10.7666 5.21168 10.9614 5.20012 11.1554 5.20342C11.3796 5.20755 11.4072 5.26162 11.3201 5.46967C10.9886 6.25973 10.3955 6.6915 9.54515 6.76622C8.91194 6.82194 8.3035 6.75301 7.76151 6.38068C7.18073 5.98152 6.89797 5.40032 6.8216 4.72748C6.70768 3.72277 6.9636 2.84024 7.84118 2.24212C8.85662 1.54988 10.5408 1.68734 11.1955 3.03342C11.4105 3.47634 11.505 3.94897 11.4964 4.44266C11.4935 4.59704 11.4283 4.65236 11.2718 4.64988C10.7864 4.64245 10.301 4.6474 9.81552 4.64699ZM28.7746 3.83133C29.0339 3.83133 29.2927 3.83339 29.5515 3.83092C29.7967 3.82844 29.8508 3.76735 29.7682 3.53949C29.6208 3.13373 29.4446 2.79483 28.6785 2.83735C28.2657 2.86047 27.921 3.14818 27.8009 3.57953C27.7456 3.77891 27.8256 3.83174 27.9982 3.83174H28.775M29.4553 4.64699C28.9777 4.64699 28.5001 4.64451 28.0225 4.64782C27.7691 4.64947 27.7468 4.69735 27.7914 4.93718C27.8781 5.39991 28.1274 5.70537 28.5963 5.79287C29.0937 5.88534 29.5222 5.76068 29.8528 5.34955C29.9123 5.27525 30.0299 5.21746 30.1257 5.2092C30.3506 5.18856 30.5785 5.20094 30.8051 5.20301C31.0408 5.20507 31.0606 5.24181 30.9777 5.45481C30.6338 6.33403 29.9581 6.73031 29.0479 6.77943C28.489 6.80915 27.9532 6.72907 27.4698 6.41618C26.9101 6.05458 26.6096 5.52209 26.5019 4.88599C26.3751 4.1372 26.454 3.40988 26.9303 2.78451C27.526 2.0027 28.3367 1.73605 29.2906 1.88134C30.6854 2.09352 31.2055 3.45694 31.1452 4.48312C31.1366 4.62883 31.0586 4.64988 30.9364 4.64864C30.4427 4.64451 29.949 4.64699 29.4553 4.64699ZM22.4004 6.6622C21.778 6.6622 21.778 6.6622 21.778 6.03435C21.778 5.05441 21.7722 4.07446 21.7829 3.09493C21.785 2.88647 21.7152 2.83487 21.5187 2.83652C21.0028 2.8423 21.0028 2.83405 21.0028 2.32674C21.0028 1.95771 21.0028 1.95771 21.3838 1.95812C21.4403 1.95812 21.4973 1.95399 21.5534 1.95895C21.7194 1.9734 21.778 1.90529 21.7833 1.73522C21.7908 1.51149 21.8031 1.27827 21.8717 1.06858C22.0388 0.55755 22.4236 0.278096 22.9478 0.221132C23.2512 0.18811 23.5616 0.218656 23.8687 0.214941C24.0169 0.21329 24.073 0.279335 24.0569 0.422983C24.0499 0.486965 24.0582 0.552184 24.0553 0.616991C24.047 0.793249 24.0953 1.01533 24.0066 1.13049C23.9405 1.21594 23.6949 1.16269 23.529 1.17177C23.2012 1.18911 22.9565 1.55772 23.0914 1.84997C23.1162 1.90364 23.2161 1.94574 23.2854 1.95276C23.4387 1.96563 23.5927 1.96673 23.7461 1.95606C23.8906 1.9478 23.9599 2.00435 23.9558 2.15007C23.955 2.16575 23.9558 2.18226 23.9562 2.19836C23.9773 2.83157 23.9773 2.84065 23.3523 2.8357C23.1207 2.83405 23.0692 2.91949 23.0716 3.1362C23.0815 4.1888 23.0758 5.2414 23.0758 6.29399C23.0758 6.66178 23.0762 6.66178 22.7162 6.6622H22.4004ZM16.2896 4.37331C16.2896 3.93577 16.2826 3.49863 16.2937 3.06149C16.2979 2.88854 16.2359 2.84024 16.07 2.83735C15.5107 2.82827 15.5111 2.82249 15.514 2.26895C15.516 1.96844 15.5251 1.95895 15.8318 1.95812C16.3507 1.95647 16.2863 2.0027 16.2892 1.50695C16.2908 1.26382 16.2966 1.02069 16.2867 0.778389C16.2809 0.62566 16.3239 0.554661 16.489 0.559614C16.7803 0.567489 17.0719 0.567489 17.3633 0.559614C17.5284 0.555899 17.5961 0.616166 17.5903 0.786645C17.5804 1.08633 17.5961 1.38642 17.5845 1.68569C17.5767 1.88258 17.6452 1.97216 17.8487 1.96019C18.0097 1.95069 18.1719 1.96019 18.3341 1.95771C18.4724 1.95482 18.5471 2.01137 18.5446 2.1575C18.5294 2.98802 18.6718 2.82332 17.9304 2.83941C17.5874 2.84726 17.5874 2.84189 17.5878 3.1911C17.5878 3.79005 17.5857 4.38941 17.589 4.98877C17.5895 5.10105 17.6031 5.21457 17.6237 5.32519C17.6753 5.60382 17.7806 5.68761 18.0679 5.69381C18.5446 5.70371 18.5446 5.70371 18.5446 6.17264C18.5446 6.69481 18.5446 6.7171 18.0241 6.71999C17.6633 6.72164 17.2976 6.67788 16.9435 6.60647C16.5542 6.52722 16.2958 6.12475 16.2904 5.6612C16.2855 5.2319 16.2892 4.80261 16.2896 4.37331ZM3.86897 49.6193C3.77155 49.6193 3.66918 49.6383 3.57878 49.6135C3.49457 49.59 3.3856 49.5379 3.35175 49.4674C3.18251 49.1153 2.93443 48.8676 2.53527 48.8234C2.04818 48.7698 1.62756 48.9006 1.38567 49.3625C1.03975 50.0221 1.02696 50.6999 1.39392 51.3513C1.64035 51.7888 2.06098 51.9651 2.55095 51.8867C3.01575 51.8124 3.27043 51.4954 3.38354 51.0458C3.40046 50.9773 3.502 50.8898 3.57176 50.8828C3.78848 50.8613 4.00808 50.877 4.22685 50.8729C4.37174 50.87 4.41178 50.9431 4.38825 51.0723C4.24584 51.8615 3.74018 52.5616 2.8011 52.7118C1.98379 52.8427 1.25729 52.6685 0.688477 52.0291C0.237305 51.5222 0.0944821 50.9084 0.117185 50.2504C0.146493 49.3889 0.465574 48.6608 1.23748 48.2249C2.2038 47.6792 3.5214 47.9025 4.07742 48.7859C4.20332 48.9861 4.26689 49.2279 4.33913 49.457C4.35027 49.4934 4.26276 49.5974 4.20704 49.6106C4.09971 49.6354 3.98207 49.6176 3.86856 49.6176V49.6193H3.86897ZM13.8703 51.0549C13.8307 50.8308 13.8183 50.6417 13.7609 50.4675C13.666 50.1819 13.479 49.9804 13.1582 49.9421C12.8359 49.9041 12.5696 50.0085 12.426 50.3012C12.2113 50.7371 12.201 51.1973 12.4144 51.6349C12.5304 51.8735 12.7355 52.0291 13.0327 52.0332C13.3399 52.0373 13.5793 51.9275 13.7015 51.6477C13.7869 51.4524 13.8212 51.2349 13.8707 51.0549M12.2943 52.3292C12.2943 52.7733 12.2844 53.1605 12.2984 53.5469C12.3063 53.7702 12.2332 53.8581 12.0053 53.8276C11.8684 53.8113 11.7299 53.8114 11.593 53.828C11.4126 53.8478 11.3717 53.7644 11.3721 53.6039C11.3754 52.2429 11.3763 50.8824 11.3721 49.5214C11.3713 49.3489 11.4353 49.2849 11.6033 49.3089C11.6664 49.3179 11.7325 49.3088 11.7973 49.3113C12.0194 49.3204 12.3091 49.2131 12.267 49.7055C12.5973 49.3216 12.9461 49.223 13.3444 49.2341C14.0073 49.2531 14.553 49.7258 14.693 50.3788C14.8081 50.9171 14.8028 51.4314 14.572 51.9416C14.2319 52.6928 13.2689 52.9756 12.5857 52.5145C12.5073 52.4617 12.4268 52.413 12.2943 52.3288M13.3906 2.6615C13.6449 2.24459 14.0086 1.98454 14.4796 1.87722C14.5266 1.86648 14.5737 1.85369 14.6215 1.84832C15.0608 1.80292 15.1128 1.85039 15.1128 2.29083C15.1128 2.47658 15.1037 2.66357 15.1157 2.84891C15.1264 3.02145 15.0558 3.07181 14.8899 3.07346C14.6422 3.07635 14.378 3.05819 14.1497 3.13538C13.5182 3.34755 13.3778 3.89077 13.3617 4.47445C13.3476 5.10551 13.3476 5.73681 13.3617 6.36788C13.3659 6.58789 13.2957 6.67747 13.0699 6.6655C12.8031 6.65379 12.5359 6.65324 12.2691 6.66385C12.1081 6.6688 12.0573 6.59987 12.0578 6.44714C12.0606 5.02304 12.0606 3.59893 12.0582 2.17483C12.0582 2.02912 12.0937 1.94822 12.2633 1.95482C12.5461 1.96597 12.8297 1.96431 13.1124 1.95523C13.2656 1.95028 13.3134 2.01798 13.3101 2.1575C13.306 2.32096 13.3089 2.48442 13.3089 2.64871L13.3906 2.66109M23.8233 51.2696C23.8101 51.2498 23.7461 51.1057 23.711 51.1123C23.3734 51.1763 23.0233 51.2254 22.7113 51.3596C22.4335 51.4793 22.476 51.9106 22.7492 52.0464C23.2727 52.3073 23.806 51.9602 23.8233 51.2696ZM24.7417 52.6404C24.4495 52.5554 24.0569 52.8299 23.7767 52.3969C23.4357 52.697 23.0196 52.7424 22.5829 52.7242C22.0058 52.7003 21.593 52.3246 21.591 51.7505C21.5893 51.2345 21.8395 50.8853 22.4702 50.7705C22.7558 50.7185 23.046 50.688 23.3337 50.6454C23.6355 50.6009 23.8241 50.4485 23.8167 50.2578C23.8072 50.006 23.6095 49.8587 23.2817 49.8488C22.9903 49.8405 22.7583 49.9161 22.6444 50.2203C22.6225 50.2789 22.5263 50.34 22.4603 50.3454C22.2593 50.3619 22.0562 50.3544 21.8543 50.3495C21.7115 50.3466 21.6892 50.2789 21.7227 50.1402C21.8197 49.7414 22.0636 49.4859 22.4438 49.3633C23.0299 49.1747 23.6202 49.1718 24.1993 49.3873C24.575 49.5272 24.7455 49.8191 24.7426 50.2186C24.7393 50.6636 24.7417 51.1086 24.7417 51.554V52.6404ZM16.1105 50.9687L16.1336 50.9765C16.146 51.1127 16.1526 51.2498 16.1728 51.3852C16.2198 51.6947 16.4803 51.9738 16.7594 52.0225C17.1288 52.0869 17.4177 51.9597 17.587 51.6316C17.7698 51.2782 17.7599 50.9038 17.6695 50.5253C17.5907 50.1967 17.3381 49.9677 17.0149 49.9388C16.6372 49.9049 16.3862 50.0395 16.25 50.3887C16.1782 50.572 16.155 50.7746 16.1105 50.9687ZM16.934 52.723C15.921 52.7775 15.1986 52.0625 15.2106 50.9798C15.2221 49.8942 15.8661 49.2358 16.9397 49.2366C17.9816 49.2379 18.647 49.9115 18.6602 50.9484C18.6743 52.034 17.9515 52.7713 16.934 52.7226M6.54339 52.0316C6.82326 52.034 7.05029 51.9048 7.18073 51.6105C7.35368 51.2221 7.34997 50.8229 7.22035 50.4324C7.11427 50.1146 6.87816 49.9363 6.52399 49.9338C6.17519 49.9317 5.93123 50.0878 5.8107 50.4081C5.66045 50.8077 5.6621 51.211 5.83959 51.6089C5.97045 51.902 6.19624 52.0328 6.54339 52.0316ZM6.49055 52.7226C5.46809 52.7589 4.7742 52.0596 4.77833 50.9814C4.78246 49.9425 5.40246 49.2168 6.53967 49.2354C7.64428 49.254 8.24736 49.9565 8.24075 50.9955C8.23415 52.0782 7.56998 52.7523 6.49055 52.7226ZM30.0212 50.936C30.0559 51.1379 30.0761 51.3059 30.1149 51.4694C30.188 51.7789 30.4311 51.9998 30.7122 52.0266C31.1064 52.0654 31.3566 51.9482 31.5073 51.6175C31.693 51.2097 31.6839 50.7879 31.5238 50.373C31.4049 50.0647 31.1626 49.9383 30.8394 49.9363C30.5215 49.9338 30.285 50.0729 30.1641 50.3569C30.084 50.5451 30.0629 50.7585 30.0212 50.936ZM30.8138 52.7226C29.8751 52.7676 29.0747 52.0761 29.1181 50.8989C29.154 49.9235 29.7789 49.2081 30.9058 49.2329C31.9138 49.2552 32.5611 49.9392 32.566 51.0066C32.5714 52.0563 31.8272 52.7936 30.8138 52.7226ZM34.0517 49.6238C34.3059 49.4996 34.5371 49.332 34.7926 49.2771C35.044 49.2234 35.3276 49.2469 35.5827 49.3031C35.8902 49.3712 36.1139 49.5867 36.1804 49.9086C36.2353 50.1769 36.2774 50.451 36.2852 50.7239C36.3009 51.282 36.2852 51.8413 36.2931 52.4002C36.2951 52.576 36.2402 52.6557 36.0565 52.6425C35.9029 52.6325 35.7487 52.6324 35.595 52.6421C35.4246 52.6516 35.3664 52.576 35.368 52.4117C35.3734 51.8937 35.3738 51.3748 35.368 50.8568C35.3675 50.7112 35.3503 50.5662 35.3168 50.4246C35.2322 50.0808 35.0543 49.9524 34.7084 49.9623C34.4075 49.971 34.1792 50.1654 34.1198 50.4741C34.1019 50.5777 34.0936 50.6827 34.095 50.7879C34.0925 51.3224 34.0896 51.857 34.0966 52.3915C34.0991 52.5665 34.0376 52.6446 33.8585 52.6417C33.0346 52.6289 33.1679 52.7457 33.1613 51.9779C33.1551 51.1841 33.1654 50.3903 33.1567 49.5961C33.1543 49.3749 33.2298 49.2767 33.4543 49.3097C33.494 49.3159 33.5353 49.3109 33.5757 49.3109C33.96 49.3117 33.96 49.3117 34.0517 49.6238ZM24.7364 4.29819C24.7364 3.61875 24.7434 2.94013 24.7323 2.26069C24.729 2.03738 24.7818 1.93212 25.029 1.95358C25.2697 1.97422 25.5145 1.97092 25.7555 1.95399C25.9817 1.93831 26.0519 2.02623 26.0507 2.24583C26.0441 3.55559 26.0474 4.86494 26.0474 6.1747C26.0474 6.6622 26.0474 6.66178 25.5652 6.66178C25.3712 6.66178 25.1764 6.65229 24.9832 6.66467C24.7876 6.67706 24.7314 6.59244 24.7335 6.40792C24.7405 5.70454 24.7364 5.00157 24.7364 4.29819ZM19.175 4.29943C19.175 3.61132 19.1811 2.92321 19.1717 2.23551C19.1684 2.02334 19.2422 1.9445 19.4536 1.95482C19.712 1.96762 19.9716 1.96473 20.23 1.95565C20.4145 1.94904 20.4917 2.01426 20.4909 2.20703C20.4864 3.61545 20.4868 5.02386 20.4909 6.43186C20.4909 6.6011 20.4199 6.66508 20.2585 6.66302C19.9754 6.65813 19.6921 6.65827 19.409 6.66343C19.2282 6.66756 19.1712 6.58501 19.1725 6.41164C19.1783 5.70784 19.175 5.00363 19.175 4.29943ZM25.6656 51.0479C25.6656 50.7561 25.6573 50.4642 25.6684 50.1736C25.6755 49.9945 25.6156 49.928 25.4332 49.933C25.1578 49.9412 24.9861 49.6226 25.1483 49.3914C25.1917 49.3295 25.3333 49.313 25.4282 49.3155C25.6057 49.3204 25.68 49.2626 25.6684 49.0781C25.6526 48.8845 25.6543 48.6898 25.6734 48.4965C25.6808 48.4325 25.7815 48.3789 25.8406 48.3215C25.8447 48.3173 25.8567 48.3207 25.8645 48.3207C26.738 48.3363 26.5679 48.1894 26.5844 48.9997C26.5906 49.3055 26.5898 49.3051 26.8965 49.3134C27.0108 49.3167 27.2069 49.3216 27.2226 49.3716C27.2696 49.519 27.2572 49.6903 27.2395 49.8488C27.2354 49.8847 27.1165 49.9334 27.0504 49.933C26.4944 49.9322 26.591 49.9363 26.5861 50.4106C26.5819 50.7825 26.5832 51.1552 26.5861 51.5276C26.5885 51.8627 26.6748 51.9614 27.005 51.9362C27.2234 51.9193 27.2643 51.9994 27.261 52.1926C27.2506 52.7643 27.294 52.6809 26.7607 52.6796C26.5759 52.6796 26.3918 52.6589 26.2117 52.6177C25.8414 52.531 25.6726 52.3069 25.6668 51.9218C25.6618 51.6303 25.6656 51.3389 25.6656 51.0475M9.69622 49.7836C9.92078 49.4925 10.1751 49.2956 10.5234 49.2473C10.8541 49.2019 10.9098 49.244 10.9094 49.5739V49.6226C10.9094 50.0659 10.9094 50.0659 10.4809 50.0878C10.0145 50.1113 9.67889 50.5072 9.66733 51.0648C9.65815 51.5015 9.65856 51.9383 9.66857 52.375C9.6727 52.5719 9.61036 52.645 9.40521 52.6446C8.74476 52.6441 8.74476 52.6512 8.74476 52.0039C8.74476 51.1949 8.75054 50.3858 8.74063 49.5772C8.73816 49.3679 8.79595 49.2717 9.01472 49.3093C9.06962 49.3188 9.12782 49.3113 9.18396 49.3109C9.56867 49.3109 9.56826 49.3109 9.63224 49.687C9.63596 49.7076 9.65701 49.7258 9.69622 49.7836ZM20.1433 49.7844C20.2292 49.7064 20.2837 49.6531 20.3419 49.6056C20.4546 49.5148 20.5574 49.3984 20.6862 49.3439C20.8975 49.2548 21.1931 49.1144 21.3363 49.3097C21.4543 49.4707 21.3891 49.7708 21.3842 50.0089C21.3838 50.0378 21.25 50.0956 21.186 50.0865C20.5739 50.0003 20.1409 50.4655 20.1652 51.1135C20.1813 51.542 20.1627 51.9721 20.1714 52.4006C20.1747 52.5756 20.1202 52.6561 19.9361 52.6429C19.7743 52.6338 19.6121 52.6333 19.4503 52.6412C19.3042 52.6466 19.2468 52.5793 19.2472 52.4377C19.2493 51.4665 19.2493 50.4952 19.2476 49.5235C19.2476 49.3761 19.293 49.2882 19.459 49.3093C19.5068 49.3155 19.5564 49.3109 19.6047 49.3109C20.0567 49.3122 20.0567 49.3122 20.1433 49.7844ZM27.7233 50.9757C27.7233 50.4985 27.7278 50.0217 27.7208 49.5446C27.7183 49.3724 27.767 49.2895 27.9561 49.3072C28.1172 49.3198 28.2791 49.3198 28.4403 49.3072C28.5901 49.2977 28.645 49.3638 28.645 49.5045C28.6442 50.4828 28.6442 51.4611 28.6463 52.439C28.6463 52.5806 28.5872 52.6355 28.4428 52.6433C27.7233 52.6829 27.7233 52.6862 27.7233 51.9697V50.9757ZM19.823 1.25309C19.1762 1.25392 19.1762 1.25392 19.175 0.606259C19.175 0.541865 19.1799 0.476232 19.1733 0.412251C19.158 0.267777 19.2183 0.202557 19.3644 0.203796C19.6719 0.206685 19.9791 0.206272 20.2862 0.203796C20.4232 0.20297 20.4967 0.250027 20.4909 0.402757C20.4827 0.620904 20.4827 0.839283 20.4909 1.05743C20.4963 1.21181 20.4195 1.25639 20.2837 1.25392C20.1301 1.25103 19.9766 1.25309 19.823 1.25309ZM25.3704 1.25392C24.7368 1.25392 24.7368 1.25392 24.7368 0.619881C24.7368 0.563329 24.7426 0.505953 24.7356 0.45064C24.7108 0.25787 24.7946 0.19265 24.9832 0.200906C25.2573 0.212464 25.5322 0.209162 25.8063 0.202144C25.9772 0.198017 26.0618 0.252504 26.0499 0.438669C26.0379 0.631439 26.0379 0.826685 26.0499 1.01945C26.0614 1.20562 25.9768 1.26382 25.8063 1.25557C25.661 1.24855 25.5157 1.25392 25.3704 1.25392ZM28.1278 48.0523C28.6768 48.0631 28.6446 47.9351 28.6467 48.6245C28.6471 48.7545 28.6075 48.8222 28.4683 48.8185C28.2743 48.8143 28.0803 48.8176 27.8859 48.8172C27.8616 48.8172 27.8289 48.8234 27.8149 48.8102C27.6201 48.634 27.7567 48.4061 27.7352 48.2034C27.7307 48.1601 27.8455 48.0808 27.9177 48.0581C27.9986 48.0325 28.094 48.0523 28.1282 48.0523M37.5603 47.8984H37.6858V48.525H37.5603V48.1894L37.3572 48.525H37.2891L37.1017 48.1894V48.525H36.982L36.9618 47.8984H37.1017L37.3238 48.3211L37.5603 47.8984ZM36.5292 48.5122V48.0032H36.2683V47.9223H36.8908C36.8898 47.9493 36.8898 47.9763 36.8908 48.0032H36.6481V48.5122H36.5292Z" fill="black"/>
<path fill-rule="evenodd" clip-rule="evenodd" d="M16.7973 19.5537V19.54C15.7534 19.54 14.7095 19.5471 13.6655 19.5351C13.4187 19.5322 13.351 19.6086 13.3518 19.8529C13.3613 21.8202 13.3572 23.7876 13.3572 25.7549C13.3572 26.088 13.3622 26.0938 13.6957 26.0938C15.3468 26.0942 16.9979 26.0946 18.6487 26.0938C19.4503 26.0938 20.2503 26.0665 21.0263 25.8387C21.8519 25.5964 22.5594 25.1894 22.947 24.3725C23.335 23.5556 23.3387 22.7032 23.1699 21.8351C22.9953 20.9332 22.4999 20.2641 21.6442 19.9462C21.0994 19.744 20.507 19.6036 19.9283 19.5706C18.8881 19.5111 17.8413 19.5537 16.7973 19.5537ZM17.1903 35.5622C18.1694 35.5622 19.149 35.5539 20.1281 35.5655C20.6746 35.5717 21.2071 35.5189 21.7297 35.3504C22.5284 35.0929 23.1757 34.6363 23.6054 33.9094C24.1011 33.0711 24.2361 32.1642 24.0842 31.2032C23.9438 30.3133 23.5245 29.6157 22.753 29.1389C21.9216 28.625 20.9962 28.4491 20.041 28.4413C17.9127 28.4248 15.7835 28.4388 13.6552 28.4326C13.4199 28.4318 13.3518 28.5115 13.3527 28.7434C13.3601 30.9134 13.3609 33.083 13.3518 35.253C13.3506 35.5032 13.4278 35.5692 13.6693 35.5667C14.8428 35.5564 16.0163 35.5626 17.1903 35.5626M22.9932 26.9288C23.3767 27.0638 23.7152 27.1658 24.0404 27.3004C25.306 27.8238 26.1931 28.7245 26.5972 30.0375C27.3113 32.3565 26.8655 34.439 25.1764 36.2004C24.3797 37.0321 23.3659 37.5295 22.2308 37.7219C21.6019 37.8276 20.9655 37.8821 20.3279 37.8849C17.1936 37.901 14.0598 37.8924 10.9259 37.8919C10.5742 37.8919 10.5742 37.8919 10.5742 37.5506V17.5025C10.5742 17.1715 10.5742 17.1719 10.9077 17.1719C13.2482 17.1719 15.5887 17.1603 17.9292 17.1769C18.9958 17.1847 20.0645 17.2157 21.1282 17.2974C21.9798 17.363 22.8339 17.493 23.5909 17.9426C24.6683 18.582 25.4356 19.4835 25.7906 20.6942C26.2472 22.2504 26.1085 23.7455 25.2189 25.1308C24.7153 25.9159 23.9909 26.4475 23.1538 26.836C23.1125 26.8554 23.0749 26.8814 22.9932 26.9288Z" fill="black"/>
</g>
<defs>
<clipPath id="clip0_2_2929">
<rect width="37.976" height="57.7896" fill="white"/>
</clipPath>
</defs>
</svg>
