<svg width="55" height="23" viewBox="0 0 55 23" fill="none" xmlns="http://www.w3.org/2000/svg">
<g clip-path="url(#clip0_2_2980)">
<path d="M54.6143 0.723633H0.142578V22.0986H54.6143V0.723633Z" fill="#D9D9D9"/>
<path d="M11.7072 13.4037H0.142578V15.1176H10.0449L11.7072 13.4037ZM0.142578 18.2884H6.96238L8.61715 16.5862H0.142578V18.2884ZM14.7992 10.2235H0.142578V11.9352H13.1337L14.7992 10.2235ZM34.3124 9.6472C33.7515 10.2222 32.8123 11.2239 32.241 11.808C31.951 12.1043 31.4267 12.6452 33.1646 12.6452H41.9744C41.9744 12.6452 43.4479 11.1257 44.6836 9.85568C46.3644 8.12739 44.829 4.53223 38.8209 4.53223H15.1603L11.058 8.75484H33.7493C34.8793 8.75484 34.8645 9.0801 34.3124 9.6472ZM46.7654 10.2236L45.1107 11.9259H54.6143V10.2236H46.7654ZM40.5304 14.1137H30.3786L26.5237 14.1136C24.7861 14.1136 25.3105 13.5726 25.6005 13.2757C26.1718 12.6911 27.1335 11.6911 27.6943 11.1154C28.2464 10.5484 28.5888 10.2234 27.4584 10.2234H17.2334L9.39797 18.2884H29.4911C35.4496 18.2884 39.0356 15.5324 40.5304 14.1137ZM42.0208 15.1082H54.6143V13.3943H43.683L42.0208 15.1082ZM38.9363 18.2884H54.6143V16.5767H40.5964L38.9363 18.2884Z" fill="black"/>
</g>
<defs>
<clipPath id="clip0_2_2980">
<rect width="54.4717" height="21.375" fill="white" transform="translate(0.144531 0.723755)"/>
</clipPath>
</defs>
</svg>
