<svg width="63" height="23" viewBox="0 0 63 23" fill="none" xmlns="http://www.w3.org/2000/svg">
<path d="M59.4882 21.9939C61.4286 21.9939 63.0017 20.4208 63.0017 18.4804C63.0017 16.5399 61.4286 14.9668 59.4882 14.9668C57.5477 14.9668 55.9746 16.5399 55.9746 18.4804C55.9746 20.4208 57.5477 21.9939 59.4882 21.9939Z" fill="black"/>
<path d="M10.181 10.6666V15.2709H14.0091C13.4533 16.1519 12.1947 16.6134 11.3347 16.6134C8.46089 16.6134 7.01351 14.9668 7.01351 11.663C7.01351 8.00258 8.91188 6.13567 12.6876 6.13567C14.1874 6.13567 16.1487 6.51325 18.2464 7.17401V1.66769C17.6381 1.40549 16.7151 1.20621 15.5404 1.00694C14.4811 0.828637 13.4113 0.723755 12.3415 0.723755C8.59723 0.723755 5.62907 1.73062 3.41605 3.74436C1.20304 5.7581 0.0703125 8.46406 0.0703125 11.8937C0.0703125 15.0297 0.930346 17.5049 2.6609 19.3299C4.39146 21.1758 6.71984 22.0987 9.65654 22.0987C12.6142 22.0987 15.3202 20.5675 16.1907 18.6271L16.1697 21.7526H20.4384V10.6666H10.181ZM22.5466 21.7421V1.05938H29.1751V16.3512H36.4015V21.7421H22.5466ZM38.5096 21.2282V15.5856C39.485 15.9002 40.6387 16.1624 41.9393 16.3932C43.2398 16.6239 44.362 16.7393 45.306 16.7393C46.9212 16.7393 47.7497 16.3407 47.7497 15.617C47.7497 15.1555 47.4875 14.9248 46.3129 14.6626L44.0054 14.1487C40.0619 13.2572 38.216 11.2749 38.216 7.8977C38.216 5.68468 38.9921 3.92266 40.5234 2.62212C42.0546 1.35305 44.1837 0.723755 46.8582 0.723755C48.7042 0.723755 51.5255 1.10133 53.2561 1.53135V6.92229C52.3646 6.69155 51.2948 6.46081 49.9942 6.26153C48.6937 6.06226 47.6868 5.97835 46.9421 5.97835C45.5262 5.97835 44.7291 6.3769 44.7291 7.10059C44.7291 7.53061 45.1067 7.82428 45.8828 8.02355L48.5573 8.65285C52.4799 9.57581 54.2944 11.5895 54.2944 15.0192C54.2944 17.2112 53.4868 18.9418 51.9031 20.2004C50.3193 21.459 48.1273 22.0987 45.3374 22.0987C42.6839 22.0883 40.0094 21.7107 38.5096 21.2282Z" fill="black"/>
</svg>
