<svg width="28" height="25" viewBox="0 0 28 25" fill="none" xmlns="http://www.w3.org/2000/svg">
<path d="M7.48438 4.38137V21.7394H15.0389C21.8983 21.7394 24.8731 17.865 24.8731 12.3857C24.8731 7.14148 21.8983 3.07288 15.0389 3.07288H8.79287C8.06706 3.07288 7.48438 3.66579 7.48438 4.38137Z" fill="black"/>
<path d="M14.1686 24.3258H1.96274C0.879146 24.3258 0 23.4466 0 22.363V2.45957C0 1.37597 0.879146 0.496826 1.96274 0.496826H14.1686C25.7508 0.496826 27.4784 7.94912 27.4784 12.3857C27.4784 20.0834 22.7453 24.3258 14.1686 24.3258ZM1.96274 1.15107C1.23694 1.15107 0.654248 1.73376 0.654248 2.45957V22.363C0.654248 23.0888 1.23694 23.6715 1.96274 23.6715H14.1686C22.3262 23.6715 26.8242 19.6642 26.8242 12.3857C26.8242 2.61291 18.8914 1.15107 14.1686 1.15107H1.96274Z" fill="black"/>
<path d="M10.1396 10.0446C10.4054 10.0446 10.6507 10.0855 10.8859 10.1673C11.121 10.2491 11.3152 10.382 11.489 10.5456C11.6526 10.7193 11.7854 10.934 11.8877 11.1794C11.9797 11.4349 12.0308 11.7314 12.0308 12.0789C12.0308 12.3856 11.9899 12.6616 11.9183 12.9172C11.8366 13.1728 11.7241 13.3977 11.5708 13.5817C11.4174 13.7657 11.2232 13.9088 10.9881 14.0212C10.753 14.1235 10.477 14.1848 10.1601 14.1848H8.37109V10.0344H10.1396V10.0446ZM10.0783 13.4283C10.2112 13.4283 10.3338 13.4079 10.4667 13.367C10.5894 13.3261 10.7019 13.2545 10.7939 13.1523C10.8859 13.0501 10.9676 12.9274 11.029 12.7639C11.0903 12.6003 11.121 12.4163 11.121 12.1812C11.121 11.9767 11.1005 11.7825 11.0596 11.6189C11.0188 11.4554 10.9472 11.302 10.8552 11.1896C10.7632 11.0771 10.6405 10.9749 10.4872 10.9136C10.3338 10.8522 10.1498 10.8216 9.92493 10.8216H9.27068V13.4386H10.0783V13.4283Z" fill="white"/>
<path d="M15.7205 10.0446V10.8113H13.5329V11.7007H15.5467V12.4061H13.5329V13.4181H15.7716V14.1848H12.623V10.0344H15.7205V10.0446Z" fill="white"/>
<path d="M18.8487 10.0447L20.4026 14.1951H19.4519L19.135 13.275H17.5811L17.254 14.1951H16.334L17.898 10.0447H18.8487ZM18.8999 12.5901L18.3785 11.0669H18.3683L17.8265 12.5901H18.8999Z" fill="white"/>
<path d="M21.8864 10.0447V13.4284H23.9105V14.1951H20.9766V10.0447H21.8864Z" fill="white"/>
<path d="M4.06788 14.0315C5.12364 14.0315 5.97951 13.1756 5.97951 12.1199C5.97951 11.0641 5.12364 10.2083 4.06788 10.2083C3.01212 10.2083 2.15625 11.0641 2.15625 12.1199C2.15625 13.1756 3.01212 14.0315 4.06788 14.0315Z" fill="black"/>
<path d="M5.51019 21.7393C3.90524 21.7393 2.61719 20.441 2.61719 18.8463V16.5871C2.61719 15.7897 3.26121 15.1355 4.0688 15.1355C4.86616 15.1355 5.52041 15.7795 5.52041 16.5871V21.7393H5.51019Z" fill="black"/>
</svg>
