<svg width="30" height="23" viewBox="0 0 30 23" fill="none" xmlns="http://www.w3.org/2000/svg">
<path d="M6.05077 22.3946V20.9302C6.05077 20.3688 5.70907 20.0027 5.12329 20.0027C4.83039 20.0027 4.5131 20.1003 4.29343 20.4176C4.12257 20.1491 3.87849 20.0027 3.51238 20.0027C3.2683 20.0027 3.02423 20.0759 2.82897 20.3444V20.0515H2.31641V22.3946H2.82897V21.101C2.82897 20.6861 3.04863 20.4908 3.39034 20.4908C3.73205 20.4908 3.9029 20.7105 3.9029 21.101V22.3946H4.41546V21.101C4.41546 20.6861 4.65954 20.4908 4.97684 20.4908C5.31854 20.4908 5.4894 20.7105 5.4894 21.101V22.3946H6.05077ZM13.6416 20.0515H12.8117V19.3437H12.2991V20.0515H11.8354V20.5153H12.2991V21.5892C12.2991 22.1262 12.5188 22.4435 13.1046 22.4435C13.3242 22.4435 13.5683 22.3702 13.7392 22.2726L13.5927 21.8333C13.4463 21.9309 13.2754 21.9553 13.1534 21.9553C12.9093 21.9553 12.8117 21.8089 12.8117 21.5648V20.5153H13.6416V20.0515ZM17.9861 20.0027C17.6932 20.0027 17.498 20.1491 17.3759 20.3444V20.0515H16.8634V22.3946H17.3759V21.0766C17.3759 20.6861 17.5468 20.4664 17.8641 20.4664C17.9617 20.4664 18.0837 20.4908 18.1814 20.5153L18.3278 20.0271C18.2302 20.0027 18.0837 20.0027 17.9861 20.0027ZM11.4205 20.2468C11.1764 20.0759 10.8347 20.0027 10.4686 20.0027C9.88277 20.0027 9.49225 20.2956 9.49225 20.7593C9.49225 21.1499 9.78514 21.3695 10.2977 21.4428L10.5418 21.4672C10.8103 21.516 10.9567 21.5892 10.9567 21.7112C10.9567 21.8821 10.7614 22.0041 10.4197 22.0041C10.078 22.0041 9.80955 21.8821 9.6387 21.76L9.39462 22.1506C9.66311 22.3458 10.0292 22.4435 10.3953 22.4435C11.0788 22.4435 11.4693 22.1262 11.4693 21.6868C11.4693 21.2719 11.152 21.0522 10.6638 20.979L10.4197 20.9546C10.2001 20.9302 10.0292 20.8814 10.0292 20.7349C10.0292 20.5641 10.2001 20.4664 10.4686 20.4664C10.7614 20.4664 11.0543 20.5885 11.2008 20.6617L11.4205 20.2468ZM25.0399 20.0027C24.747 20.0027 24.5518 20.1491 24.4297 20.3444V20.0515H23.9172V22.3946H24.4297V21.0766C24.4297 20.6861 24.6006 20.4664 24.9179 20.4664C25.0155 20.4664 25.1376 20.4908 25.2352 20.5153L25.3816 20.0271C25.284 20.0027 25.1376 20.0027 25.0399 20.0027ZM18.4987 21.2231C18.4987 21.9309 18.9868 22.4435 19.7435 22.4435C20.0852 22.4435 20.3292 22.3702 20.5733 22.175L20.3292 21.76C20.134 21.9065 19.9387 21.9797 19.7191 21.9797C19.3041 21.9797 19.0112 21.6868 19.0112 21.2231C19.0112 20.7837 19.3041 20.4909 19.7191 20.4664C19.9387 20.4664 20.134 20.5397 20.3292 20.6861L20.5733 20.2712C20.3292 20.0759 20.0852 20.0027 19.7435 20.0027C18.9868 20.0027 18.4987 20.5153 18.4987 21.2231ZM23.2338 21.2231V20.0515H22.7212V20.3444C22.5503 20.1247 22.3063 20.0027 21.989 20.0027C21.33 20.0027 20.8174 20.5153 20.8174 21.2231C20.8174 21.9309 21.33 22.4435 21.989 22.4435C22.3307 22.4435 22.5748 22.3214 22.7212 22.1018V22.3946H23.2338V21.2231ZM21.3544 21.2231C21.3544 20.8081 21.6228 20.4664 22.0622 20.4664C22.4771 20.4664 22.77 20.7837 22.77 21.2231C22.77 21.638 22.4771 21.9797 22.0622 21.9797C21.6228 21.9553 21.3544 21.638 21.3544 21.2231ZM15.228 20.0027C14.5446 20.0027 14.0565 20.4908 14.0565 21.2231C14.0565 21.9553 14.5446 22.4435 15.2525 22.4435C15.5942 22.4435 15.9359 22.3458 16.2044 22.1262L15.9603 21.76C15.765 21.9065 15.5209 22.0041 15.2769 22.0041C14.9596 22.0041 14.6423 21.8577 14.569 21.4428H16.302C16.302 21.3695 16.302 21.3207 16.302 21.2475C16.3264 20.4908 15.8871 20.0027 15.228 20.0027ZM15.228 20.442C15.5453 20.442 15.765 20.6373 15.8138 21.0034H14.5934C14.6423 20.6861 14.8619 20.442 15.228 20.442ZM27.9444 21.2231V19.124H27.4319V20.3444C27.261 20.1247 27.0169 20.0027 26.6996 20.0027C26.0406 20.0027 25.5281 20.5153 25.5281 21.2231C25.5281 21.9309 26.0406 22.4435 26.6996 22.4435C27.0413 22.4435 27.2854 22.3214 27.4319 22.1018V22.3946H27.9444V21.2231ZM26.065 21.2231C26.065 20.8081 26.3335 20.4664 26.7729 20.4664C27.1878 20.4664 27.4807 20.7837 27.4807 21.2231C27.4807 21.638 27.1878 21.9797 26.7729 21.9797C26.3335 21.9553 26.065 21.638 26.065 21.2231ZM8.93088 21.2231V20.0515H8.41832V20.3444C8.24746 20.1247 8.00339 20.0027 7.68609 20.0027C7.02708 20.0027 6.51452 20.5153 6.51452 21.2231C6.51452 21.9309 7.02708 22.4435 7.68609 22.4435C8.02779 22.4435 8.27187 22.3214 8.41832 22.1018V22.3946H8.93088V21.2231ZM7.02708 21.2231C7.02708 20.8081 7.29556 20.4664 7.7349 20.4664C8.14983 20.4664 8.44273 20.7837 8.44273 21.2231C8.44273 21.638 8.14983 21.9797 7.7349 21.9797C7.29556 21.9553 7.02708 21.638 7.02708 21.2231Z" fill="black"/>
<path d="M18.9384 2.25842H11.25V16.0732H18.9384V2.25842Z" fill="#616161"/>
<path d="M11.7384 9.16578C11.7384 6.3589 13.0564 3.86933 15.0822 2.25842C13.5933 1.08685 11.714 0.379028 9.66371 0.379028C4.80658 0.379028 0.876953 4.30866 0.876953 9.16578C0.876953 14.0229 4.80658 17.9525 9.66371 17.9525C11.714 17.9525 13.5933 17.2447 15.0822 16.0732C13.0564 14.4867 11.7384 11.9727 11.7384 9.16578Z" fill="black"/>
<path d="M29.3127 9.16578C29.3127 14.0229 25.383 17.9525 20.5259 17.9525C18.4757 17.9525 16.5963 17.2447 15.1074 16.0732C17.1577 14.4622 18.4513 11.9727 18.4513 9.16578C18.4513 6.3589 17.1333 3.86933 15.1074 2.25842C16.5963 1.08685 18.4757 0.379028 20.5259 0.379028C25.383 0.379028 29.3127 4.33307 29.3127 9.16578Z" fill="#B3B3B3"/>
</svg>
