<svg width="20" height="25" viewBox="0 0 20 25" fill="none" xmlns="http://www.w3.org/2000/svg">
<g clip-path="url(#clip0_2_2972)">
<path d="M5.87818 21.9289L6.2742 19.4301L5.39205 19.4098H1.17969L4.10706 0.971121C4.11615 0.915458 4.14568 0.863556 4.18884 0.826698C4.232 0.789841 4.28728 0.769531 4.34483 0.769531H11.4475C13.8054 0.769531 15.4327 1.25696 16.2822 2.21902C16.6805 2.67034 16.9342 3.14197 17.0569 3.66098C17.1856 4.20558 17.1879 4.85623 17.0622 5.6498L17.0531 5.70772V6.2162L17.4514 6.44036C17.7868 6.61712 18.0534 6.81947 18.2578 7.05114C18.5986 7.43702 18.8189 7.92745 18.912 8.5089C19.0082 9.1069 18.9764 9.81848 18.8189 10.6241C18.6372 11.5508 18.3434 12.3579 17.9466 13.0183C17.5816 13.6269 17.1167 14.1316 16.5647 14.5227C16.0377 14.8943 15.4115 15.1764 14.7035 15.3569C14.0174 15.5344 13.2352 15.624 12.3773 15.624H11.8246C11.4293 15.624 11.0454 15.7654 10.744 16.0189C10.4419 16.2776 10.242 16.6311 10.1806 17.0178L10.139 17.2427L9.43934 21.6468L9.40753 21.8085C9.39921 21.8597 9.38482 21.8853 9.36362 21.9026C9.34469 21.9184 9.31743 21.9289 9.29092 21.9289H5.87818Z" fill="#253B80"/>
<path d="M17.8269 5.76562C17.8057 5.90027 17.7814 6.03792 17.7542 6.17933C16.8175 10.9565 13.613 12.6069 9.52026 12.6069H7.43642C6.9359 12.6069 6.51414 12.9679 6.43615 13.4584L5.36924 20.18L5.06711 22.0853C5.01638 22.4073 5.26626 22.6976 5.59337 22.6976H9.28931C9.72698 22.6976 10.0988 22.3817 10.1677 21.9529L10.204 21.7664L10.8999 17.3796L10.9446 17.1389C11.0127 16.7086 11.3853 16.3927 11.8229 16.3927H12.3757C15.9566 16.3927 18.7597 14.9485 19.579 10.7693C19.9213 9.0234 19.7441 7.56564 18.8385 6.54039C18.5644 6.23124 18.2244 5.97474 17.8269 5.76562Z" fill="#B3B3B3"/>
<path d="M16.8484 5.38085C16.7053 5.33948 16.5576 5.30187 16.4062 5.26802C16.254 5.23492 16.098 5.20559 15.9375 5.18001C15.3756 5.08975 14.76 5.04688 14.1005 5.04688H8.53346C8.3964 5.04688 8.26616 5.07772 8.14955 5.13338C7.89286 5.25599 7.70204 5.49744 7.65585 5.79306L6.47157 13.2443L6.4375 13.4617C6.51549 12.9713 6.93726 12.6102 7.43777 12.6102H9.52162C13.6143 12.6102 16.8189 10.9592 17.7555 6.1827C17.7835 6.04128 17.807 5.90363 17.8282 5.76899C17.5912 5.64412 17.3345 5.53731 17.0581 5.44629C16.99 5.42373 16.9196 5.40191 16.8484 5.38085Z" fill="#616161"/>
<path d="M7.65676 5.79118C7.70295 5.49557 7.89377 5.25411 8.15046 5.13225C8.26783 5.07659 8.39731 5.04575 8.53437 5.04575H14.1014C14.7609 5.04575 15.3765 5.08863 15.9384 5.17889C16.0989 5.20446 16.2549 5.2338 16.4071 5.2669C16.5585 5.30075 16.7062 5.33836 16.8493 5.37973C16.9205 5.40079 16.9909 5.4226 17.0598 5.44442C17.3362 5.53543 17.5929 5.643 17.8299 5.76711C18.1085 4.0017 17.8276 2.79968 16.8667 1.71125C15.8074 0.513 13.8954 0 11.4489 0H4.34624C3.84648 0 3.42017 0.361055 3.34294 0.852241L0.384517 19.4804C0.326212 19.849 0.612437 20.1815 0.986499 20.1815H5.3715L6.47249 13.2425L7.65676 5.79118Z" fill="black"/>
</g>
<defs>
<clipPath id="clip0_2_2972">
<rect width="19.4264" height="24.8226" fill="white" transform="translate(0.376953)"/>
</clipPath>
</defs>
</svg>
