<svg width="23" height="23" viewBox="0 0 23 23" fill="none" xmlns="http://www.w3.org/2000/svg">
<path d="M15.4091 3.66179C12.5414 2.08066 8.23353 0.378906 5.55216 0.378906C4.84869 0.378906 4.28208 0.494828 3.86835 0.722459C2.86682 1.27498 2.02937 2.76499 1.44506 5.03311C0.960311 6.91844 0.681641 9.23795 0.681641 11.3962C0.681641 15.6913 1.67895 20.8632 3.86835 22.071C4.31627 22.3179 4.91549 22.4434 5.64979 22.4434C8.42011 22.4434 12.6382 20.659 15.4091 19.131C18.4611 17.4483 23.0017 14.0004 23.0064 11.3962C23.0022 8.94893 18.5619 5.40026 15.4091 3.66179ZM15.0488 18.5913C10.6503 21.0164 5.97901 22.4104 4.26366 21.466C2.3722 20.4223 1.42496 15.4353 1.42448 11.4627C1.42496 7.52104 2.43046 2.4714 4.26366 1.46012C5.87272 0.572591 10.757 1.96775 15.0488 4.33397C18.7683 6.38529 22.2601 9.60342 22.2632 11.4627C22.2597 13.4119 18.8271 16.5082 15.0488 18.5913Z" fill="black"/>
<path d="M17.2086 10.1949C17.0273 10.1949 16.8056 10.2403 16.5981 10.3192C16.5026 10.3553 16.362 10.435 16.2698 10.5061L16.2446 10.5255C16.2427 10.526 16.2362 10.5295 16.2306 10.5295C16.2272 10.5295 16.2238 10.5289 16.2207 10.5276C16.2175 10.5264 16.2146 10.5245 16.2122 10.5221C16.2098 10.5198 16.2078 10.5169 16.2065 10.5138C16.2052 10.5107 16.2045 10.5073 16.2044 10.5039V10.2706C16.2043 10.2655 16.2023 10.2607 16.1986 10.2571C16.195 10.2535 16.1901 10.2515 16.1849 10.2515H15.4309C15.4193 10.2514 15.4077 10.2535 15.3969 10.2579C15.3861 10.2622 15.3763 10.2686 15.3679 10.2767C15.3596 10.2849 15.353 10.2946 15.3484 10.3053C15.3439 10.316 15.3415 10.3275 15.3413 10.3391V13.3111C15.3413 13.321 15.3503 13.3295 15.3608 13.3295H16.1845C16.1948 13.3295 16.204 13.321 16.204 13.3111V11.2128C16.204 11.1974 16.2162 11.1785 16.2264 11.1723C16.2646 11.1489 16.3747 11.0815 16.5137 11.001C16.6533 10.9212 16.7949 10.8779 16.9113 10.8779C17.2381 10.8779 17.3777 11.053 17.3777 11.4638V13.3112C17.3777 13.3211 17.3859 13.3296 17.3963 13.3296H18.2182C18.2293 13.3296 18.237 13.3221 18.237 13.3112V11.3131C18.237 10.5813 17.8815 10.1949 17.2086 10.1949ZM19.5823 9.19112C19.434 9.02753 18.9755 8.73899 18.9235 8.73899C18.9016 8.73899 18.8974 8.74405 18.8974 8.7603L18.8983 13.3111C18.8983 13.321 18.9063 13.3295 18.9164 13.3295H19.737C19.7419 13.3294 19.7466 13.3275 19.7501 13.3241C19.7536 13.3206 19.7557 13.316 19.7559 13.3111L19.7556 9.64409C19.7558 9.47688 19.694 9.31553 19.5823 9.19112ZM8.19272 10.1821C7.30169 10.1821 6.58462 10.6764 6.58462 11.7898C6.58462 12.8776 7.30169 13.3973 8.19272 13.3973C9.08049 13.3973 9.79901 12.8776 9.79901 11.7898C9.79889 10.6773 9.08049 10.1821 8.19272 10.1821ZM8.19272 12.6325C7.79487 12.6325 7.49634 12.33 7.49634 11.7902C7.49634 11.2027 7.79487 10.9457 8.19272 10.9457C8.58911 10.9457 8.88728 11.2026 8.88728 11.7902C8.88716 12.33 8.58911 12.6325 8.19272 12.6325ZM14.787 12.605C14.7572 12.605 14.5542 12.6844 14.4247 12.6844C14.1491 12.6844 13.9844 12.5544 13.9844 12.1182V10.9821C13.9844 10.9658 13.9972 10.9522 14.0142 10.9522H14.7586C14.7626 10.9523 14.7665 10.9516 14.7702 10.9501C14.7738 10.9486 14.7772 10.9464 14.7799 10.9436C14.7827 10.9408 14.7849 10.9375 14.7864 10.9338C14.7879 10.9301 14.7886 10.9262 14.7885 10.9222H14.7889L14.7885 10.3375C14.7883 10.3117 14.778 10.287 14.7598 10.2688C14.7416 10.2506 14.7169 10.2403 14.6911 10.2402H14.0142C14.0103 10.2403 14.0064 10.2396 14.0027 10.2381C13.9991 10.2367 13.9958 10.2345 13.993 10.2317C13.9902 10.229 13.988 10.2257 13.9865 10.222C13.985 10.2184 13.9843 10.2145 13.9844 10.2106V9.40623C13.9844 9.38167 13.9735 9.37445 13.9476 9.37445C13.8879 9.37445 13.4245 9.67202 13.2806 9.83007C13.1674 9.95663 13.1047 10.1204 13.1043 10.2902V12.2664C13.1043 13.1238 13.5994 13.3919 14.1322 13.3919C14.4368 13.3919 14.6438 13.3471 14.7666 13.2809C14.782 13.2724 14.7948 13.26 14.8038 13.2448C14.8127 13.2297 14.8174 13.2124 14.8174 13.1948V12.6349C14.8173 12.627 14.814 12.6193 14.8083 12.6137C14.8027 12.6081 14.795 12.605 14.787 12.605ZM4.50236 10.2402H3.33062C3.31756 10.2401 3.30459 10.2425 3.29248 10.2474C3.28036 10.2523 3.26934 10.2596 3.26003 10.2687C3.25072 10.2779 3.24332 10.2888 3.23825 10.3009C3.23318 10.3129 3.23053 10.3258 3.23047 10.3389V13.9367C3.231 14.1065 3.29373 14.2703 3.40682 14.397C3.55163 14.5557 4.01484 14.8526 4.07503 14.8526C4.10091 14.8526 4.11126 14.8456 4.11126 14.8207V13.371C4.11126 13.3538 4.12414 13.3406 4.14135 13.3406H4.48394C5.58261 13.3406 6.25009 12.7207 6.25009 11.8255C6.24997 10.9316 5.65375 10.2402 4.50236 10.2402ZM4.50236 12.5353H4.14075C4.13683 12.5353 4.13296 12.5345 4.12935 12.533C4.12574 12.5314 4.12247 12.5292 4.11972 12.5264C4.11697 12.5237 4.11479 12.5204 4.11332 12.5167C4.11185 12.5131 4.11111 12.5092 4.11114 12.5053V11.0745C4.11114 11.0583 4.12402 11.0445 4.14075 11.0445H4.48466C5.13421 11.0445 5.38062 11.4011 5.38062 11.7816C5.38074 11.9973 5.27637 12.5353 4.50236 12.5353ZM12.2772 11.6545C12.0952 11.5351 11.8733 11.4864 11.6586 11.44C11.6203 11.4311 11.4775 11.3992 11.4454 11.3917C11.1832 11.3337 10.9763 11.2876 10.9763 11.1176C10.9763 10.9709 11.1181 10.8752 11.3362 10.8752C11.6127 10.8752 11.9961 10.9307 12.4154 11.0876C12.4363 11.0953 12.4652 11.0831 12.4667 11.0549V10.4474C12.4664 10.4257 12.4592 10.4046 12.4463 10.3872C12.4333 10.3698 12.4152 10.3569 12.3944 10.3505C12.2479 10.304 11.8121 10.1823 11.4432 10.1823C11.0335 10.1823 10.6918 10.2738 10.4563 10.4483C10.2177 10.6224 10.0916 10.8741 10.0916 11.1766C10.0916 11.8594 10.6511 11.9889 11.18 12.114C11.2613 12.133 11.2486 12.1301 11.2796 12.1366C11.5211 12.1893 11.7712 12.2448 11.7712 12.4437C11.7712 12.5035 11.7491 12.552 11.704 12.5976C11.6363 12.6647 11.5325 12.6945 11.3334 12.6945C10.996 12.6945 10.3631 12.537 10.1672 12.4747C10.1631 12.4733 10.1587 12.4725 10.1544 12.4723C10.1495 12.4722 10.1447 12.473 10.1402 12.4747C10.1356 12.4765 10.1315 12.4791 10.128 12.4825C10.1245 12.4859 10.1218 12.4899 10.1199 12.4943C10.118 12.4988 10.117 12.5036 10.1169 12.5084V13.1172C10.1169 13.1381 10.1234 13.1584 10.1355 13.1754C10.1477 13.1924 10.1648 13.2052 10.1846 13.2119C10.1888 13.2142 10.7432 13.3976 11.2663 13.3976C12.1816 13.3976 12.6506 13.0394 12.6506 12.3864C12.6506 12.058 12.5278 11.8195 12.2772 11.6545ZM8.14071 6.23373C8.15925 6.24733 8.1755 6.25407 8.19175 6.25407H8.19272C8.21145 6.25318 8.22934 6.24601 8.24352 6.23373C8.36879 6.13457 8.48175 6.02077 8.57997 5.89475C8.59598 5.87308 8.60958 5.84648 8.58045 5.81506C8.47831 5.68194 8.35865 5.56322 8.22474 5.46212C8.20969 5.45297 8.20102 5.45093 8.19187 5.45093C8.18369 5.45093 8.17562 5.45297 8.16034 5.46212C8.02624 5.56351 7.90615 5.68218 7.80318 5.81506C7.77092 5.85118 7.79475 5.87995 7.80462 5.89475C7.90259 6.02087 8.01544 6.13469 8.14071 6.23373ZM6.73051 8.9913V9.32462C6.73051 9.41105 6.76205 9.44752 6.83488 9.44752H9.55152C9.62531 9.44752 9.65685 9.41105 9.65685 9.32462V8.9913C9.65628 8.95457 9.64139 8.91951 9.61535 8.89361C9.58931 8.8677 9.55418 8.853 9.51745 8.85262H6.86943C6.83278 8.85312 6.79777 8.86788 6.77183 8.89378C6.7459 8.91967 6.73107 8.95465 6.73051 8.9913ZM8.00577 8.5134H8.3787C8.44406 8.5134 8.44851 8.43913 8.44851 8.43817C8.44851 8.42372 8.46826 6.87365 8.47151 6.66299C8.47151 6.64734 8.46633 6.61219 8.44514 6.59028C8.43261 6.57856 8.41596 6.57224 8.3988 6.57271C8.32973 6.56895 8.26057 6.56719 8.19139 6.56741C8.09618 6.56741 8.01552 6.57066 7.98543 6.57271C7.97694 6.57241 7.96848 6.57384 7.96056 6.5769C7.95263 6.57996 7.94541 6.5846 7.93933 6.59052C7.91718 6.61219 7.91272 6.64734 7.91272 6.66299C7.91573 6.87365 7.93487 8.42372 7.93547 8.43817C7.93571 8.44106 7.94041 8.5134 8.00577 8.5134ZM9.81466 6.85872C9.71571 6.82261 9.61857 6.78963 9.52636 6.76218C9.40839 6.72546 9.29572 6.69946 9.19725 6.67611L9.19484 6.67575C9.17595 6.67118 9.15662 6.66867 9.13718 6.66829C9.03848 6.66829 8.99237 6.73762 8.97383 6.77951C8.86634 7.01738 8.78906 7.23357 8.71406 7.50345C8.70792 7.52584 8.70913 7.54197 8.71852 7.55317C8.72646 7.564 8.74151 7.57002 8.76342 7.57002H9.05497C9.09373 7.57002 9.11588 7.55618 9.12406 7.52873C9.17197 7.36623 9.20592 7.27113 9.26767 7.13378C9.27501 7.11994 9.29163 7.10549 9.3204 7.10549C9.32979 7.10549 9.33893 7.10669 9.35025 7.11007L9.49927 7.15906C9.55525 7.17976 9.57547 7.25464 9.55645 7.30772C9.55344 7.31603 9.25672 8.14614 9.16824 8.41939C9.15837 8.45201 9.15981 8.47681 9.17077 8.4921C9.18088 8.5057 9.20014 8.51316 9.22819 8.51316H9.58859C9.63446 8.51316 9.66106 8.49715 9.6737 8.46297C9.68658 8.42746 9.70548 8.37533 9.72751 8.31394C9.83211 8.02275 10.0068 7.53583 10.0423 7.4033C10.1008 7.18554 10.1128 6.97031 9.81466 6.85872ZM6.70933 8.46309C6.72185 8.49715 6.74929 8.5134 6.79564 8.5134H7.15604C7.18337 8.5134 7.20287 8.50594 7.21274 8.49222C7.22405 8.47693 7.22477 8.45213 7.21442 8.41951C7.12679 8.14626 6.8303 7.31615 6.82669 7.30784C6.80791 7.25464 6.82838 7.18 6.88411 7.15906L7.03386 7.11019C7.04322 7.10728 7.05295 7.10574 7.06275 7.10561C7.09236 7.10561 7.10909 7.12006 7.11559 7.1339C7.17674 7.27053 7.2125 7.36647 7.25944 7.52897C7.26787 7.5563 7.28978 7.57014 7.32806 7.57014H7.62009C7.64224 7.57014 7.65753 7.56424 7.66547 7.55341C7.67438 7.54221 7.6751 7.52584 7.66872 7.50357C7.59373 7.23393 7.51633 7.0175 7.41015 6.77975C7.39138 6.73762 7.34551 6.66841 7.24608 6.66841C7.22802 6.66841 7.20865 6.67118 7.18914 6.67587L7.18686 6.67623C7.0867 6.69971 6.97451 6.72571 6.85727 6.7623C6.76482 6.78987 6.6678 6.82273 6.56921 6.85896C6.27044 6.97043 6.28259 7.18566 6.34074 7.40342C6.37577 7.5362 6.55067 8.02287 6.65528 8.31418C6.67839 8.37545 6.69645 8.42758 6.70933 8.46309Z" fill="black"/>
</svg>
