<?xml version="1.0" encoding="UTF-8"?>
<svg xmlns="http://www.w3.org/2000/svg" xmlns:xlink="http://www.w3.org/1999/xlink" width="63px" height="61px" viewBox="0 0 62 61" version="1.1">
<g id="surface1">
<path style=" stroke:none;fill-rule:nonzero;fill:rgb(11.764706%,11.764706%,11.764706%);fill-opacity:1;" d="M 0.667969 39.921875 L 2.292969 39.921875 L 2.292969 41.25 L 3.464844 41.25 L 3.464844 42.605469 L 2.292969 42.605469 L 2.292969 45.046875 C 2.292969 45.992188 2.582031 46.183594 3.214844 46.183594 C 3.3125 46.183594 3.414062 46.179688 3.511719 46.171875 L 3.511719 47.597656 C 3.28125 47.644531 3.042969 47.664062 2.808594 47.660156 C 1.3125 47.660156 0.65625 46.8125 0.65625 45.097656 L 0.65625 42.605469 L 0 42.605469 L 0 41.25 L 0.667969 41.25 Z M 0.667969 39.921875 "/>
<path style=" stroke:none;fill-rule:nonzero;fill:rgb(11.764706%,11.764706%,11.764706%);fill-opacity:1;" d="M 10.132812 43.921875 L 10.132812 47.574219 L 8.492188 47.574219 L 8.492188 43.730469 C 8.492188 43.027344 8.015625 42.59375 7.453125 42.59375 C 6.761719 42.59375 6.320312 43.101562 6.320312 43.777344 L 6.320312 47.574219 L 4.671875 47.574219 L 4.671875 38.835938 L 6.320312 38.835938 L 6.320312 41.988281 C 6.679688 41.421875 7.304688 41.085938 7.96875 41.09375 C 9.761719 41.09375 10.132812 42.582031 10.132812 43.921875 Z M 10.132812 43.921875 "/>
<path style=" stroke:none;fill-rule:nonzero;fill:rgb(11.764706%,11.764706%,11.764706%);fill-opacity:1;" d="M 11.515625 44.902344 L 11.515625 41.25 L 13.164062 41.25 L 13.164062 45.097656 C 13.164062 45.796875 13.644531 46.230469 14.203125 46.230469 C 14.886719 46.230469 15.316406 45.722656 15.316406 45.046875 L 15.316406 41.25 L 16.964844 41.25 L 16.964844 47.574219 L 15.351562 47.574219 L 15.351562 46.835938 C 14.980469 47.402344 14.351562 47.742188 13.679688 47.730469 C 11.898438 47.730469 11.515625 46.246094 11.515625 44.902344 Z M 11.515625 44.902344 "/>
<path style=" stroke:none;fill-rule:nonzero;fill:rgb(11.764706%,11.764706%,11.764706%);fill-opacity:1;" d="M 19.199219 38.773438 C 19.71875 38.78125 20.132812 39.210938 20.128906 39.738281 C 20.125 40.261719 19.703125 40.6875 19.179688 40.683594 C 18.660156 40.679688 18.242188 40.253906 18.242188 39.730469 C 18.238281 39.472656 18.339844 39.226562 18.519531 39.046875 C 18.699219 38.867188 18.945312 38.769531 19.199219 38.773438 Z M 18.386719 41.25 L 20.035156 41.25 L 20.035156 47.574219 L 18.386719 47.574219 Z M 18.386719 41.25 "/>
<path style=" stroke:none;fill-rule:nonzero;fill:rgb(11.764706%,11.764706%,11.764706%);fill-opacity:1;" d="M 21.097656 46.558594 L 22.066406 45.6875 C 22.410156 46.132812 22.941406 46.386719 23.5 46.378906 C 23.964844 46.378906 24.261719 46.171875 24.261719 45.808594 C 24.261719 44.84375 21.3125 45.214844 21.3125 42.96875 C 21.3125 41.796875 22.304688 41.09375 23.582031 41.09375 C 24.765625 41.09375 25.421875 41.722656 25.71875 42.21875 L 24.632812 43.039062 C 24.375 42.671875 23.957031 42.445312 23.511719 42.4375 C 23.128906 42.4375 22.863281 42.628906 22.863281 42.945312 C 22.863281 43.949219 25.828125 43.464844 25.828125 45.722656 C 25.828125 46.957031 24.777344 47.730469 23.425781 47.730469 C 22.195312 47.730469 21.429688 47.101562 21.097656 46.558594 Z M 21.097656 46.558594 "/>
<path style=" stroke:none;fill-rule:nonzero;fill:rgb(11.764706%,11.764706%,11.764706%);fill-opacity:1;" d="M 31.191406 43.523438 L 30.03125 47.574219 L 28.191406 47.574219 L 26.328125 41.25 L 28.121094 41.25 L 29.21875 45.738281 L 30.414062 41.25 L 31.96875 41.25 L 33.152344 45.738281 L 34.261719 41.25 L 36.054688 41.25 L 34.179688 47.574219 L 32.339844 47.574219 Z M 31.191406 43.523438 "/>
<path style=" stroke:none;fill-rule:nonzero;fill:rgb(11.764706%,11.764706%,11.764706%);fill-opacity:1;" d="M 37.773438 38.773438 C 38.292969 38.78125 38.710938 39.210938 38.707031 39.738281 C 38.699219 40.261719 38.277344 40.6875 37.757812 40.683594 C 37.238281 40.679688 36.816406 40.253906 36.816406 39.730469 C 36.816406 39.472656 36.917969 39.226562 37.097656 39.046875 C 37.277344 38.867188 37.519531 38.769531 37.773438 38.773438 Z M 36.960938 41.25 L 38.609375 41.25 L 38.609375 47.574219 L 36.960938 47.574219 Z M 36.960938 41.25 "/>
<path style=" stroke:none;fill-rule:nonzero;fill:rgb(11.764706%,11.764706%,11.764706%);fill-opacity:1;" d="M 45.539062 43.921875 L 45.539062 47.574219 L 43.890625 47.574219 L 43.890625 43.730469 C 43.890625 43.027344 43.414062 42.59375 42.851562 42.59375 C 42.167969 42.59375 41.738281 43.101562 41.738281 43.777344 L 41.738281 47.574219 L 40.089844 47.574219 L 40.089844 41.25 L 41.703125 41.25 L 41.703125 41.988281 C 42.074219 41.421875 42.703125 41.085938 43.375 41.09375 C 45.15625 41.09375 45.539062 42.582031 45.539062 43.921875 Z M 45.539062 43.921875 "/>
<path style=" stroke:none;fill-rule:nonzero;fill:rgb(11.764706%,11.764706%,11.764706%);fill-opacity:1;" d="M 46.960938 38.835938 L 48.609375 38.835938 L 48.609375 43.910156 L 50.617188 41.25 L 52.46875 41.25 L 50.269531 44.117188 L 52.636719 47.574219 L 50.699219 47.574219 L 48.609375 44.308594 L 48.609375 47.574219 L 46.960938 47.574219 Z M 46.960938 38.835938 "/>
<path style=" stroke:none;fill-rule:nonzero;fill:rgb(11.764706%,11.764706%,11.764706%);fill-opacity:1;" d="M 56.21875 41.09375 C 58.152344 41.09375 59.253906 42.398438 59.253906 44.46875 C 59.253906 44.589844 59.253906 44.707031 59.242188 44.828125 L 54.84375 44.828125 C 54.878906 45.675781 55.550781 46.28125 56.46875 46.28125 C 57.070312 46.289062 57.636719 46 57.988281 45.507812 L 59.074219 46.339844 C 58.835938 46.789062 58 47.730469 56.445312 47.730469 C 54.4375 47.730469 53.160156 46.328125 53.160156 44.429688 C 53.160156 42.519531 54.4375 41.09375 56.21875 41.09375 Z M 57.582031 43.742188 C 57.578125 43.390625 57.433594 43.054688 57.179688 42.8125 C 56.929688 42.570312 56.589844 42.445312 56.242188 42.460938 C 55.464844 42.460938 54.964844 43.015625 54.890625 43.742188 Z M 57.582031 43.742188 "/>
<path style=" stroke:none;fill-rule:nonzero;fill:rgb(11.764706%,11.764706%,11.764706%);fill-opacity:1;" d="M 60.351562 38.835938 L 62 38.835938 L 62 47.574219 L 60.351562 47.574219 Z M 60.351562 38.835938 "/>
<path style=" stroke:none;fill-rule:nonzero;fill:rgb(11.764706%,11.764706%,11.764706%);fill-opacity:1;" d="M 11.324219 54.160156 L 9.78125 58.796875 L 8.816406 58.796875 L 6.875 52.960938 L 7.828125 52.960938 L 9.339844 57.765625 C 9.339844 57.765625 9.347656 57.742188 10.890625 52.960938 L 11.757812 52.960938 C 13.289062 57.742188 13.296875 57.765625 13.296875 57.765625 L 14.816406 52.960938 L 15.773438 52.960938 L 13.820312 58.796875 L 12.855469 58.796875 Z M 11.324219 54.160156 "/>
<path style=" stroke:none;fill-rule:nonzero;fill:rgb(11.764706%,11.764706%,11.764706%);fill-opacity:1;" d="M 18.613281 55.082031 C 19.34375 55.082031 19.898438 55.363281 20.132812 55.609375 L 20.132812 54.890625 C 20.132812 54.070312 19.585938 53.601562 18.734375 53.601562 C 18.132812 53.609375 17.546875 53.785156 17.035156 54.105469 L 16.679688 53.453125 C 17.320312 53.046875 18.054688 52.824219 18.8125 52.816406 C 20.386719 52.816406 21.007812 53.703125 21.007812 54.949219 L 21.007812 58.796875 L 20.253906 58.796875 L 20.152344 58.304688 C 19.855469 58.652344 19.367188 58.941406 18.589844 58.941406 C 17.324219 58.941406 16.394531 58.136719 16.394531 57 C 16.394531 55.890625 17.3125 55.082031 18.613281 55.082031 Z M 18.734375 58.203125 C 19.578125 58.203125 20.164062 57.695312 20.164062 56.988281 C 20.164062 56.261719 19.585938 55.789062 18.722656 55.789062 C 17.847656 55.789062 17.28125 56.304688 17.28125 56.988281 C 17.28125 57.664062 17.847656 58.203125 18.734375 58.203125 Z M 18.734375 58.203125 "/>
<path style=" stroke:none;fill-rule:nonzero;fill:rgb(11.764706%,11.764706%,11.764706%);fill-opacity:1;" d="M 24.433594 55.082031 C 25.167969 55.082031 25.722656 55.363281 25.953125 55.609375 L 25.953125 54.890625 C 25.953125 54.070312 25.410156 53.601562 24.558594 53.601562 C 23.957031 53.609375 23.371094 53.785156 22.859375 54.105469 L 22.503906 53.453125 C 23.140625 53.046875 23.878906 52.824219 24.636719 52.816406 C 26.210938 52.816406 26.832031 53.703125 26.832031 54.949219 L 26.832031 58.796875 L 26.078125 58.796875 L 25.976562 58.304688 C 25.675781 58.652344 25.191406 58.941406 24.414062 58.941406 C 23.148438 58.941406 22.214844 58.136719 22.214844 57 C 22.214844 55.890625 23.136719 55.082031 24.433594 55.082031 Z M 24.558594 58.203125 C 25.398438 58.203125 25.988281 57.695312 25.988281 56.988281 C 25.988281 56.261719 25.410156 55.789062 24.546875 55.789062 C 23.667969 55.789062 23.105469 56.304688 23.105469 56.988281 C 23.105469 57.664062 23.667969 58.203125 24.558594 58.203125 Z M 24.558594 58.203125 "/>
<path style=" stroke:none;fill-rule:nonzero;fill:rgb(11.764706%,11.764706%,11.764706%);fill-opacity:1;" d="M 31.003906 53.703125 C 29.683594 53.703125 29.292969 54.757812 29.292969 56.003906 L 29.292969 58.796875 L 28.417969 58.796875 L 28.417969 52.960938 L 29.28125 52.960938 L 29.28125 53.9375 C 29.480469 53.355469 30.125 52.816406 31.003906 52.816406 Z M 31.003906 53.703125 "/>
<path style=" stroke:none;fill-rule:nonzero;fill:rgb(11.764706%,11.764706%,11.764706%);fill-opacity:1;" d="M 32.144531 50.683594 L 33.019531 50.683594 L 33.019531 53.902344 C 33.472656 53.210938 34.242188 52.796875 35.0625 52.816406 C 36.691406 52.816406 37.8125 54.09375 37.8125 55.890625 C 37.8125 57.675781 36.636719 58.941406 34.996094 58.941406 C 34.191406 58.953125 33.4375 58.550781 32.988281 57.875 L 32.988281 58.796875 L 32.144531 58.796875 Z M 34.941406 58.144531 C 36.050781 58.144531 36.914062 57.257812 36.914062 55.902344 C 36.914062 54.566406 36.09375 53.621094 34.960938 53.621094 C 33.875 53.621094 32.988281 54.453125 32.988281 55.902344 C 32.988281 57.125 33.742188 58.144531 34.941406 58.144531 Z M 34.941406 58.144531 "/>
<path style=" stroke:none;fill-rule:nonzero;fill:rgb(11.764706%,11.764706%,11.764706%);fill-opacity:1;" d="M 41.730469 52.816406 C 43.46875 52.816406 44.734375 54.128906 44.734375 55.878906 C 44.757812 56.695312 44.445312 57.488281 43.875 58.066406 C 43.304688 58.644531 42.527344 58.960938 41.71875 58.941406 C 39.988281 58.941406 38.710938 57.652344 38.710938 55.878906 C 38.6875 55.0625 39 54.269531 39.570312 53.691406 C 40.140625 53.113281 40.921875 52.796875 41.730469 52.816406 Z M 41.71875 58.136719 C 42.960938 58.136719 43.847656 57.179688 43.847656 55.878906 C 43.847656 54.589844 42.960938 53.621094 41.71875 53.621094 C 40.476562 53.621094 39.609375 54.597656 39.609375 55.878906 C 39.609375 57.191406 40.488281 58.136719 41.71875 58.136719 Z M 41.71875 58.136719 "/>
<path style=" stroke:none;fill-rule:nonzero;fill:rgb(11.764706%,11.764706%,11.764706%);fill-opacity:1;" d="M 48.605469 53.703125 C 47.285156 53.703125 46.898438 54.757812 46.898438 56.003906 L 46.898438 58.796875 L 46.023438 58.796875 L 46.023438 52.960938 L 46.886719 52.960938 L 46.886719 53.9375 C 47.085938 53.355469 47.730469 52.816406 48.605469 52.816406 Z M 48.605469 53.703125 "/>
<path style=" stroke:none;fill-rule:nonzero;fill:rgb(11.764706%,11.764706%,11.764706%);fill-opacity:1;" d="M 50.371094 59.671875 C 50.902344 59.980469 51.5 60.144531 52.113281 60.15625 C 53.210938 60.15625 54.140625 59.695312 54.140625 58.394531 L 54.140625 57.875 C 53.703125 58.558594 52.949219 58.960938 52.144531 58.941406 C 50.492188 58.941406 49.359375 57.675781 49.359375 55.890625 C 49.359375 54.09375 50.503906 52.816406 52.132812 52.816406 C 52.953125 52.800781 53.722656 53.210938 54.175781 53.902344 L 54.175781 52.960938 L 55.019531 52.960938 L 55.019531 57.988281 C 55.019531 60.199219 53.785156 60.953125 52.121094 60.953125 C 51.398438 60.941406 50.6875 60.738281 50.058594 60.367188 Z M 52.199219 53.621094 C 51.078125 53.621094 50.246094 54.554688 50.246094 55.890625 C 50.246094 57.25 51.113281 58.136719 52.222656 58.136719 C 53.410156 58.136719 54.175781 57.148438 54.175781 55.890625 C 54.175781 54.476562 53.296875 53.621094 52.199219 53.621094 Z M 52.199219 53.621094 "/>
<path style=" stroke:none;fill-rule:nonzero;fill:rgb(11.764706%,11.764706%,11.764706%);fill-opacity:1;" d="M 31 0.046875 L 13.753906 10.121094 L 13.753906 30.316406 L 48.246094 30.316406 L 48.246094 10.121094 Z M 46.402344 28.453125 L 31.921875 28.453125 L 31.921875 20.734375 L 46.402344 12.273438 Z M 30.078125 28.453125 L 15.597656 28.453125 L 15.597656 12.273438 L 30.078125 20.734375 Z M 31 19.121094 L 16.515625 10.660156 L 31 2.199219 L 45.484375 10.660156 Z M 31 19.121094 "/>
<path style=" stroke:none;fill-rule:nonzero;fill:rgb(74.117647%,91.764706%,9.411765%);fill-opacity:1;" d="M 46.402344 12.273438 L 31.921875 20.734375 L 31.921875 28.453125 L 46.402344 28.453125 Z M 46.402344 12.273438 "/>
<path style=" stroke:none;fill-rule:nonzero;fill:rgb(98.823529%,24.705882%,30.196078%);fill-opacity:1;" d="M 15.597656 28.453125 L 30.078125 28.453125 L 30.078125 20.734375 L 15.597656 12.273438 Z M 15.597656 28.453125 "/>
<path style=" stroke:none;fill-rule:nonzero;fill:rgb(100%,100%,100%);fill-opacity:1;" d="M 16.515625 10.660156 L 31 19.117188 L 45.484375 10.660156 L 31 2.199219 Z M 16.515625 10.660156 "/>
</g>
</svg>
