<svg width="33" height="21" viewBox="0 0 33 21" fill="none" xmlns="http://www.w3.org/2000/svg">
<path d="M2.19781 0.0684814H31.1575C32.0714 0.0684814 32.8123 0.809394 32.8123 1.72332V19.0991C32.8123 20.0131 32.0714 20.754 31.1575 20.754H2.19781C1.28388 20.754 0.542969 20.0131 0.542969 19.0991V1.72332C0.542969 0.809394 1.28388 0.0684814 2.19781 0.0684814Z" fill="black"/>
<path d="M12.6724 14.4958L14.0526 6.39701H16.2601L14.879 14.4958H12.6724ZM22.8542 6.5716C22.4169 6.40752 21.7315 6.23145 20.8758 6.23145C18.6945 6.23145 17.158 7.32984 17.1449 8.90413C17.1326 10.0679 18.2418 10.7171 19.0791 11.1045C19.9384 11.5014 20.2272 11.7546 20.2232 12.1091C20.2177 12.6519 19.537 12.8999 18.9025 12.8999C18.019 12.8999 17.5496 12.7772 16.8246 12.4748L16.5401 12.3462L16.2303 14.1592C16.7459 14.3852 17.6994 14.5811 18.6893 14.5912C21.0098 14.5912 22.5161 13.5054 22.5333 11.8242C22.5416 10.9029 21.9535 10.2018 20.6799 9.62378C19.9083 9.24917 19.4358 8.99912 19.4408 8.61979C19.4408 8.28315 19.8407 7.92314 20.7049 7.92314C21.4268 7.91197 21.9498 8.06939 22.3572 8.23343L22.555 8.32693L22.8542 6.5716ZM28.5348 6.39689H26.829C26.3006 6.39689 25.9051 6.54115 25.6731 7.0685L22.3947 14.4905H24.7127C24.7127 14.4905 25.0917 13.4925 25.1774 13.2734C25.4308 13.2734 27.6826 13.2769 28.0046 13.2769C28.0707 13.5604 28.2731 14.4905 28.2731 14.4905H30.3216L28.5348 6.39664V6.39689ZM25.8284 11.6266C26.011 11.16 26.708 9.36265 26.708 9.36265C26.6949 9.38424 26.8891 8.89375 27.0006 8.58967L27.1498 9.28797C27.1498 9.28797 27.5725 11.2212 27.6609 11.6266H25.8284ZM10.7984 6.39689L8.63715 11.9199L8.40684 10.7975C8.00451 9.50372 6.75097 8.10199 5.34961 7.40022L7.32573 14.4829L9.66137 14.4803L13.1367 6.3968H10.7984" fill="white"/>
<path d="M6.62097 6.39665H3.06138L3.0332 6.56515C5.80249 7.23553 7.63489 8.85557 8.3957 10.802L7.62165 7.08022C7.48802 6.56743 7.1005 6.4144 6.62106 6.39648" fill="white"/>
</svg>
